<?xml version="1.0" encoding="utf-8"?>
<!-- Generator: Adobe Illustrator 29.7.1, SVG Export Plug-In . SVG Version: 9.03 Build 0)  -->
<svg version="1.0" id="Layer_1" xmlns="http://www.w3.org/2000/svg" xmlns:xlink="http://www.w3.org/1999/xlink" x="0px" y="0px"
	 viewBox="0 0 199.28 198.92" style="enable-background:new 0 0 199.28 198.92;" xml:space="preserve">
<style type="text/css">
	.st0{fill:#EC1E24;}
</style>
<g>
	<polygon class="st0" points="98.24,113.05 71.13,86.44 76.03,81.45 98.25,103.25 160.49,42.35 165.38,47.35 	"/>
</g>
<g>
	<path class="st0" d="M145.87,159.43h-93.7c-10.66,0-19.32-8.67-19.32-19.32V46.4c0-10.66,8.67-19.32,19.32-19.32h71.67v7H52.17
		c-6.8,0-12.32,5.53-12.32,12.32v93.7c0,6.8,5.53,12.32,12.32,12.32h93.7c6.8,0,12.32-5.53,12.32-12.32V92.32h7v47.78
		C165.19,150.76,156.53,159.43,145.87,159.43z"/>
</g>
</svg>
