<?xml version="1.0" encoding="utf-8"?>
<!-- Generator: Adobe Illustrator 29.7.1, SVG Export Plug-In . SVG Version: 9.03 Build 0)  -->
<svg version="1.0" id="Layer_1" xmlns="http://www.w3.org/2000/svg" xmlns:xlink="http://www.w3.org/1999/xlink" x="0px" y="0px"
	 viewBox="0 0 199.28 198.92" style="enable-background:new 0 0 199.28 198.92;" xml:space="preserve">
<style type="text/css">
	.st0{fill:#EC1E24;}
</style>
<g>
	<path class="st0" d="M100.77,21.94c-41.64,0-75.52,33.88-75.52,75.52s33.88,75.52,75.52,75.52c41.64,0,75.52-33.88,75.52-75.52
		S142.41,21.94,100.77,21.94z M100.77,165.98c-37.78,0-68.52-30.74-68.52-68.52c0-37.78,30.74-68.52,68.52-68.52
		c37.78,0,68.52,30.74,68.52,68.52C169.29,135.24,138.55,165.98,100.77,165.98z"/>
	<path class="st0" d="M116.91,56.89l-38.22-0.03v39.93H67.45c-1.93,0-3.5,1.57-3.5,3.5c0,1.93,1.57,3.5,3.5,3.5h11.24v10.35H67.45
		c-1.93,0-3.5,1.57-3.5,3.5s1.57,3.5,3.5,3.5h11.24v17.23c0,1.93,1.57,3.5,3.5,3.5s3.5-1.57,3.5-3.5v-17.23h32.28
		c1.93,0,3.5-1.57,3.5-3.5s-1.57-3.5-3.5-3.5H85.69v-10.35h32.74l0.44-0.03c13.93-1.75,17.57-13.79,18.49-18.89
		c0.36-1.97,0.54-3.49,0.39-4.68C137.59,64.02,124.08,57.88,116.91,56.89z M130.75,81.33c-0.17,2.69-1.56,13.93-12.55,15.45H85.69
		V63.86h30.47c1.89,0.33,14.59,3.07,14.59,16.62V81.33z"/>
</g>
</svg>
